<svg xmlns="http://www.w3.org/2000/svg" viewBox="0 0 640 360" role="img" aria-labelledby="shirtTitle shirtDesc">
  <title id="shirtTitle">Футболка экипажа Алабуги</title>
  <desc id="shirtDesc">Минималистичная иллюстрация футболки с надписью Алабуга и эмблемой миссии.</desc>
  <defs>
    <linearGradient id="bg" x1="0" y1="0" x2="1" y2="1">
      <stop offset="0%" stop-color="#0f172a" />
      <stop offset="100%" stop-color="#1e293b" />
    </linearGradient>
    <linearGradient id="shirt" x1="0" y1="0" x2="0" y2="1">
      <stop offset="0%" stop-color="#5c6bc0" />
      <stop offset="100%" stop-color="#283593" />
    </linearGradient>
  </defs>
  <rect width="640" height="360" fill="url(#bg)" />
  <g transform="translate(160 40)">
    <path
      d="M60 20 L120 0 L180 20 L220 20 C240 20 248 38 244 60 L226 150 C220 200 200 240 160 260 L120 280 L80 260 C40 240 20 200 14 150 L-4 60 C-8 38 0 20 20 20 Z"
      fill="url(#shirt)"
      stroke="#c5cae9"
      stroke-width="6"
      stroke-linejoin="round"
    />
    <rect x="72" y="92" width="136" height="46" rx="8" fill="#1e88e5" opacity="0.85" />
    <text x="140" y="122" text-anchor="middle" font-size="32" font-weight="600" fill="#fff" font-family="'Montserrat', 'Arial', sans-serif">
      АЛАБУГА
    </text>
    <circle cx="140" cy="190" r="42" fill="#0d47a1" stroke="#bbdefb" stroke-width="6" />
    <text x="140" y="200" text-anchor="middle" font-size="26" font-weight="500" fill="#bbdefb" font-family="'Montserrat', 'Arial', sans-serif">
      ⚡42
    </text>
  </g>
  <text x="60" y="320" fill="#e8eaf6" font-family="'Montserrat', 'Arial', sans-serif" font-size="32" font-weight="600">
    Футболка экипажа
  </text>
  <text x="60" y="348" fill="#c5cae9" font-family="'Montserrat', 'Arial', sans-serif" font-size="20">
    Лимитированная серия для выпускников миссии
  </text>
</svg>
